<svg id="svg" version="1.1" width="400" height="400" viewBox="0 0 400 400" xmlns="http://www.w3.org/2000/svg" xmlns:xlink="http://www.w3.org/1999/xlink" ><g id="svgg"><path id="path0" d="M188.200 1.600 C 187.561 2.306,186.968 2.400,183.138 2.400 C 179.333 2.400,178.702 2.498,178.000 3.200 C 177.350 3.850,176.667 4.000,174.363 4.000 C 171.862 4.000,171.500 4.095,171.316 4.800 C 171.140 5.473,170.770 5.600,168.980 5.600 C 167.205 5.600,166.812 5.732,166.600 6.400 C 166.390 7.060,165.995 7.200,164.336 7.200 C 162.662 7.200,162.290 7.334,162.116 8.000 C 161.952 8.627,161.570 8.800,160.353 8.800 C 159.067 8.800,158.800 8.937,158.800 9.600 C 158.800 10.267,158.533 10.400,157.200 10.400 C 155.867 10.400,155.600 10.533,155.600 11.200 C 155.600 11.849,155.333 12.000,154.187 12.000 C 153.345 12.000,152.688 12.226,152.560 12.561 C 152.441 12.869,151.727 13.237,150.972 13.379 C 150.156 13.532,149.600 13.872,149.600 14.218 C 149.600 14.542,149.229 14.800,148.763 14.800 C 148.275 14.800,147.842 15.119,147.726 15.562 C 147.599 16.048,147.032 16.418,146.163 16.581 C 145.354 16.732,144.800 17.073,144.800 17.418 C 144.800 17.738,144.440 18.000,144.000 18.000 C 143.467 18.000,143.200 18.267,143.200 18.800 C 143.200 19.333,142.933 19.600,142.400 19.600 C 141.867 19.600,141.600 19.867,141.600 20.400 C 141.600 20.979,141.333 21.200,140.633 21.200 C 140.054 21.200,139.018 21.822,138.052 22.750 C 137.165 23.602,136.161 24.406,135.820 24.537 C 135.479 24.668,135.200 25.030,135.200 25.341 C 135.200 25.652,134.840 26.001,134.400 26.116 C 133.960 26.231,133.600 26.612,133.600 26.963 C 133.600 27.313,133.330 27.600,133.000 27.600 C 132.670 27.600,132.400 27.887,132.400 28.237 C 132.400 28.588,132.040 28.969,131.600 29.084 C 131.160 29.199,130.800 29.536,130.800 29.833 C 130.800 30.129,130.440 30.565,130.000 30.800 C 129.476 31.080,129.200 31.638,129.200 32.414 C 129.200 33.333,129.020 33.600,128.400 33.600 C 127.867 33.600,127.600 33.867,127.600 34.400 C 127.600 34.933,127.333 35.200,126.800 35.200 C 126.271 35.200,126.000 35.467,126.000 35.986 C 126.000 36.418,125.640 36.965,125.200 37.200 C 124.676 37.480,124.400 38.038,124.400 38.814 C 124.400 39.733,124.220 40.000,123.600 40.000 C 122.992 40.000,122.800 40.267,122.800 41.112 C 122.800 41.765,122.470 42.461,122.000 42.800 C 121.560 43.117,121.200 43.676,121.200 44.042 C 121.200 44.407,120.840 44.801,120.400 44.916 C 119.822 45.067,119.600 45.462,119.600 46.336 C 119.600 47.195,119.368 47.620,118.800 47.800 C 118.211 47.987,118.000 48.405,118.000 49.384 C 118.000 50.190,117.766 50.804,117.407 50.942 C 117.081 51.067,116.699 51.888,116.559 52.766 C 116.419 53.645,115.965 54.669,115.552 55.044 C 115.090 55.461,114.800 56.262,114.800 57.118 C 114.800 57.935,114.535 58.706,114.159 58.980 C 113.789 59.251,113.428 60.283,113.303 61.424 C 113.184 62.511,112.842 63.544,112.543 63.720 C 112.169 63.940,112.000 64.899,112.000 66.806 C 112.000 69.162,111.882 69.635,111.200 70.000 C 110.494 70.378,110.400 70.838,110.400 73.925 C 110.400 76.927,110.287 77.519,109.600 78.107 C 108.819 78.775,108.800 79.287,108.800 99.100 C 108.800 118.974,108.817 119.418,109.600 119.907 C 110.317 120.355,110.400 120.840,110.400 124.603 C 110.400 128.533,110.451 128.800,111.200 128.800 C 111.933 128.800,112.000 129.067,112.000 132.000 C 112.000 134.578,112.117 135.200,112.600 135.200 C 113.072 135.200,113.200 135.756,113.200 137.804 C 113.200 139.913,113.352 140.538,114.000 141.093 C 114.603 141.610,114.800 142.273,114.800 143.793 C 114.800 145.374,114.972 145.915,115.600 146.307 C 116.146 146.648,116.400 147.240,116.400 148.171 C 116.400 149.930,116.745 150.800,117.443 150.800 C 117.844 150.800,118.000 151.355,118.000 152.786 C 118.000 154.315,118.172 154.864,118.746 155.171 C 119.252 155.442,119.561 156.175,119.704 157.446 C 119.832 158.577,120.170 159.463,120.558 159.680 C 120.959 159.905,121.200 160.572,121.200 161.457 C 121.200 162.538,121.390 162.925,122.000 163.084 C 122.606 163.243,122.800 163.630,122.800 164.684 C 122.800 165.738,122.994 166.125,123.600 166.284 C 124.206 166.443,124.400 166.830,124.400 167.884 C 124.400 168.938,124.594 169.325,125.200 169.484 C 125.806 169.643,126.000 170.030,126.000 171.084 C 126.000 172.138,126.194 172.525,126.800 172.684 C 127.401 172.841,127.600 173.230,127.600 174.247 C 127.600 175.333,127.758 175.600,128.400 175.600 C 129.049 175.600,129.200 175.867,129.200 177.013 C 129.200 177.899,129.423 178.511,129.800 178.655 C 130.130 178.782,130.400 179.226,130.400 179.643 C 130.400 180.133,130.682 180.400,131.200 180.400 C 131.852 180.400,132.000 180.667,132.000 181.837 C 132.000 182.938,132.187 183.324,132.800 183.484 C 133.362 183.631,133.600 184.030,133.600 184.824 C 133.600 185.458,133.919 186.184,134.326 186.477 C 134.726 186.765,135.170 187.315,135.314 187.700 C 135.457 188.085,135.851 188.400,136.187 188.400 C 136.525 188.400,136.800 188.745,136.800 189.167 C 136.800 190.359,137.231 191.200,137.843 191.200 C 138.149 191.200,138.400 191.560,138.400 192.000 C 138.400 192.533,138.667 192.800,139.200 192.800 C 139.733 192.800,140.000 193.067,140.000 193.600 C 140.000 194.133,140.267 194.400,140.800 194.400 C 141.467 194.400,141.600 194.667,141.600 196.000 C 141.600 197.333,141.733 197.600,142.400 197.600 C 142.933 197.600,143.200 197.867,143.200 198.400 C 143.200 198.933,143.467 199.200,144.000 199.200 C 144.533 199.200,144.800 199.467,144.800 200.000 C 144.800 200.444,145.067 200.800,145.400 200.800 C 145.730 200.800,146.000 201.087,146.000 201.437 C 146.000 201.788,146.360 202.169,146.800 202.284 C 147.243 202.400,147.600 202.830,147.600 203.247 C 147.600 203.661,147.868 204.000,148.195 204.000 C 148.522 204.000,149.052 204.630,149.374 205.400 C 149.696 206.170,150.127 206.800,150.333 206.800 C 150.539 206.800,150.801 207.160,150.916 207.600 C 151.031 208.040,151.412 208.400,151.763 208.400 C 152.228 208.400,152.400 208.789,152.400 209.837 C 152.400 210.938,152.587 211.324,153.200 211.484 C 153.902 211.668,154.000 212.030,154.000 214.443 C 154.000 216.760,154.126 217.272,154.800 217.693 C 156.017 218.453,156.017 225.798,154.800 226.116 C 154.063 226.309,154.000 226.662,154.000 230.600 C 154.000 234.538,154.063 234.891,154.800 235.084 C 155.243 235.200,155.600 235.630,155.600 236.047 C 155.600 236.518,155.882 236.800,156.353 236.800 C 156.770 236.800,157.200 237.157,157.316 237.600 C 157.431 238.040,157.791 238.400,158.116 238.400 C 158.441 238.400,158.801 238.760,158.916 239.200 C 159.031 239.640,159.412 240.000,159.763 240.000 C 160.113 240.000,160.400 240.258,160.400 240.573 C 160.400 240.888,160.743 241.255,161.163 241.388 C 161.583 241.521,162.027 241.894,162.150 242.215 C 162.279 242.550,162.893 242.800,163.587 242.800 C 164.533 242.800,164.800 242.976,164.800 243.600 C 164.800 244.124,165.067 244.400,165.573 244.400 C 165.998 244.400,166.460 244.760,166.600 245.200 C 166.789 245.795,167.205 246.000,168.227 246.000 C 169.333 246.000,169.600 246.155,169.600 246.800 C 169.600 247.467,169.867 247.600,171.200 247.600 C 172.533 247.600,172.800 247.733,172.800 248.400 C 172.800 249.063,173.067 249.200,174.353 249.200 C 175.570 249.200,175.952 249.373,176.116 250.000 C 176.290 250.665,176.662 250.800,178.316 250.800 C 179.970 250.800,180.342 250.935,180.516 251.600 C 180.698 252.296,181.062 252.400,183.301 252.400 C 185.368 252.400,186.019 252.558,186.600 253.200 C 187.726 254.445,212.755 254.445,214.000 253.200 C 214.609 252.591,215.333 252.400,217.037 252.400 C 218.938 252.400,219.306 252.280,219.484 251.600 C 219.660 250.927,220.030 250.800,221.820 250.800 C 223.595 250.800,223.988 250.668,224.200 250.000 C 224.389 249.405,224.805 249.200,225.827 249.200 C 226.933 249.200,227.200 249.045,227.200 248.400 C 227.200 247.733,227.467 247.600,228.800 247.600 C 230.133 247.600,230.400 247.467,230.400 246.800 C 230.400 246.148,230.667 246.000,231.837 246.000 C 232.938 246.000,233.324 245.813,233.484 245.200 C 233.600 244.757,234.030 244.400,234.447 244.400 C 234.933 244.400,235.200 244.117,235.200 243.600 C 235.200 242.952,235.467 242.800,236.600 242.800 C 237.578 242.800,238.000 242.619,238.000 242.200 C 238.000 241.870,238.260 241.600,238.577 241.600 C 238.895 241.600,239.390 241.273,239.677 240.874 C 239.965 240.474,240.515 240.030,240.900 239.886 C 241.285 239.743,241.600 239.349,241.600 239.013 C 241.600 238.676,241.870 238.400,242.200 238.400 C 242.533 238.400,242.800 238.044,242.800 237.600 C 242.800 237.067,243.067 236.800,243.600 236.800 C 244.133 236.800,244.400 236.533,244.400 236.000 C 244.400 235.467,244.667 235.200,245.200 235.200 C 245.941 235.200,246.000 234.933,246.000 231.563 C 246.000 228.262,245.926 227.906,245.200 227.716 C 244.486 227.529,244.400 227.170,244.400 224.380 C 244.400 221.605,244.490 221.225,245.200 221.000 C 245.925 220.770,246.000 220.395,246.000 217.020 C 246.000 213.630,246.072 213.274,246.800 213.084 C 247.480 212.906,247.600 212.538,247.600 210.637 C 247.600 208.667,247.695 208.400,248.400 208.400 C 248.933 208.400,249.200 208.133,249.200 207.600 C 249.200 207.160,249.458 206.800,249.773 206.800 C 250.088 206.800,250.453 206.464,250.583 206.053 C 250.714 205.642,251.176 204.984,251.610 204.591 C 252.045 204.198,252.400 203.544,252.400 203.138 C 252.400 202.667,252.689 202.400,253.200 202.400 C 253.717 202.400,254.000 202.133,254.000 201.647 C 254.000 201.230,254.357 200.800,254.800 200.684 C 255.240 200.569,255.600 200.209,255.600 199.884 C 255.600 199.559,255.960 199.199,256.400 199.084 C 256.840 198.969,257.200 198.588,257.200 198.237 C 257.200 197.887,257.470 197.600,257.800 197.600 C 258.233 197.600,258.400 197.156,258.400 196.000 C 258.400 194.667,258.533 194.400,259.200 194.400 C 259.733 194.400,260.000 194.133,260.000 193.600 C 260.000 193.067,260.267 192.800,260.800 192.800 C 261.317 192.800,261.600 192.533,261.600 192.047 C 261.600 191.630,261.957 191.200,262.400 191.084 C 262.974 190.934,263.200 190.538,263.200 189.684 C 263.200 188.830,263.426 188.434,264.000 188.284 C 264.440 188.169,264.800 187.809,264.800 187.484 C 264.800 187.159,265.160 186.799,265.600 186.684 C 266.206 186.525,266.400 186.138,266.400 185.084 C 266.400 184.030,266.594 183.643,267.200 183.484 C 267.740 183.343,268.000 182.938,268.000 182.241 C 268.000 181.640,268.335 180.997,268.800 180.707 C 269.240 180.432,269.600 179.891,269.600 179.504 C 269.600 179.117,269.854 178.800,270.165 178.800 C 270.510 178.800,270.832 178.192,270.993 177.239 C 271.174 176.170,271.500 175.615,272.029 175.477 C 272.573 175.334,272.800 174.924,272.800 174.084 C 272.800 173.230,273.026 172.834,273.600 172.684 C 274.213 172.524,274.400 172.138,274.400 171.037 C 274.400 170.026,274.578 169.600,275.000 169.600 C 275.433 169.600,275.600 169.156,275.600 168.000 C 275.600 166.667,275.733 166.400,276.400 166.400 C 277.067 166.400,277.200 166.133,277.200 164.800 C 277.200 163.467,277.333 163.200,278.000 163.200 C 278.663 163.200,278.800 162.933,278.800 161.647 C 278.800 160.430,278.973 160.048,279.600 159.884 C 280.266 159.710,280.400 159.338,280.400 157.664 C 280.400 156.005,280.540 155.610,281.200 155.400 C 281.868 155.188,282.000 154.795,282.000 153.020 C 282.000 151.230,282.127 150.860,282.800 150.684 C 283.383 150.532,283.600 150.138,283.600 149.237 C 283.600 148.533,283.945 147.655,284.400 147.200 C 285.019 146.581,285.200 145.867,285.200 144.047 C 285.200 142.030,285.314 141.663,286.000 141.484 C 286.683 141.306,286.800 140.938,286.800 138.982 C 286.800 137.297,286.978 136.558,287.471 136.198 C 287.935 135.859,288.198 134.922,288.326 133.158 C 288.450 131.438,288.720 130.454,289.155 130.137 C 289.661 129.767,289.829 128.754,289.937 125.427 C 290.055 121.748,290.174 121.135,290.837 120.780 C 291.541 120.403,291.600 119.855,291.600 113.629 C 291.600 108.004,291.699 106.847,292.200 106.655 C 293.070 106.321,293.094 93.804,292.225 93.318 C 291.762 93.059,291.625 91.462,291.525 85.139 C 291.417 78.329,291.307 77.179,290.700 76.509 C 290.195 75.952,290.000 75.060,290.000 73.301 C 290.000 70.505,289.745 69.600,288.957 69.600 C 288.534 69.600,288.400 68.927,288.400 66.803 C 288.400 64.440,288.276 63.929,287.600 63.507 C 286.965 63.110,286.800 62.574,286.800 60.904 C 286.800 59.067,286.699 58.800,286.000 58.800 C 285.321 58.800,285.200 58.533,285.200 57.033 C 285.200 54.886,284.896 54.000,284.157 54.000 C 283.784 54.000,283.600 53.525,283.600 52.563 C 283.600 51.462,283.413 51.076,282.800 50.916 C 282.194 50.757,282.000 50.370,282.000 49.316 C 282.000 48.262,281.806 47.875,281.200 47.716 C 280.599 47.559,280.400 47.170,280.400 46.153 C 280.400 45.067,280.242 44.800,279.600 44.800 C 278.948 44.800,278.800 44.533,278.800 43.363 C 278.800 42.262,278.613 41.876,278.000 41.716 C 277.557 41.600,277.200 41.170,277.200 40.753 C 277.200 40.267,276.917 40.000,276.400 40.000 C 275.751 40.000,275.600 39.733,275.600 38.587 C 275.600 37.745,275.374 37.088,275.039 36.960 C 274.731 36.841,274.388 36.397,274.277 35.972 C 274.166 35.548,273.788 35.200,273.437 35.200 C 273.080 35.200,272.800 34.869,272.800 34.447 C 272.800 34.032,272.459 33.604,272.042 33.495 C 271.594 33.378,271.173 32.788,271.011 32.049 C 270.860 31.362,270.502 30.800,270.215 30.800 C 269.928 30.800,269.599 30.440,269.484 30.000 C 269.369 29.560,269.009 29.200,268.684 29.200 C 268.359 29.200,267.999 28.840,267.884 28.400 C 267.769 27.960,267.388 27.600,267.037 27.600 C 266.667 27.600,266.400 27.265,266.400 26.800 C 266.400 26.267,266.133 26.000,265.600 26.000 C 265.067 26.000,264.800 25.733,264.800 25.200 C 264.800 24.683,264.533 24.400,264.047 24.400 C 263.630 24.400,263.200 24.043,263.084 23.600 C 262.969 23.160,262.588 22.800,262.237 22.800 C 261.887 22.800,261.600 22.526,261.600 22.190 C 261.600 21.829,261.098 21.480,260.368 21.334 C 259.691 21.198,258.927 20.753,258.672 20.344 C 258.417 19.935,258.002 19.600,257.750 19.600 C 257.499 19.600,257.199 19.240,257.084 18.800 C 256.959 18.321,256.538 18.000,256.037 18.000 C 255.571 18.000,255.200 17.742,255.200 17.418 C 255.200 17.070,254.638 16.731,253.800 16.574 C 252.948 16.414,252.400 16.079,252.400 15.718 C 252.400 15.392,252.052 15.034,251.628 14.923 C 251.203 14.812,250.762 14.479,250.649 14.183 C 250.535 13.886,249.803 13.524,249.021 13.378 C 248.203 13.224,247.600 12.875,247.600 12.555 C 247.600 12.174,247.099 12.000,246.000 12.000 C 244.667 12.000,244.400 11.867,244.400 11.200 C 244.400 10.558,244.133 10.400,243.047 10.400 C 242.030 10.400,241.641 10.201,241.484 9.600 C 241.319 8.969,240.938 8.800,239.684 8.800 C 238.430 8.800,238.049 8.631,237.884 8.000 C 237.710 7.335,237.338 7.200,235.684 7.200 C 234.030 7.200,233.658 7.065,233.484 6.400 C 233.307 5.723,232.938 5.600,231.084 5.600 C 229.230 5.600,228.861 5.477,228.684 4.800 C 228.500 4.095,228.138 4.000,225.637 4.000 C 223.333 4.000,222.650 3.850,222.000 3.200 C 221.307 2.507,220.667 2.400,217.200 2.400 C 213.733 2.400,213.093 2.293,212.400 1.600 C 211.638 0.838,211.067 0.800,200.262 0.800 C 189.432 0.800,188.892 0.836,188.200 1.600 M135.345 245.400 C 135.201 245.775,134.590 246.000,133.720 246.000 C 132.662 246.000,132.275 246.193,132.116 246.800 C 131.963 247.384,131.568 247.601,130.653 247.605 C 128.797 247.614,127.600 248.022,127.600 248.647 C 127.600 249.015,127.120 249.200,126.163 249.200 C 125.062 249.200,124.676 249.387,124.516 250.000 C 124.343 250.662,123.970 250.800,122.357 250.800 C 120.840 250.800,120.296 250.978,119.907 251.600 C 119.577 252.129,118.974 252.400,118.131 252.400 C 117.205 252.400,116.784 252.620,116.600 253.200 C 116.409 253.801,115.995 254.000,114.936 254.000 C 113.862 254.000,113.475 254.191,113.316 254.800 C 113.159 255.401,112.770 255.600,111.753 255.600 C 110.667 255.600,110.400 255.758,110.400 256.400 C 110.400 257.067,110.133 257.200,108.800 257.200 C 107.733 257.200,106.933 257.467,106.400 258.000 C 105.911 258.489,105.067 258.800,104.227 258.800 C 103.205 258.800,102.789 259.005,102.600 259.600 C 102.413 260.188,101.995 260.400,101.020 260.400 C 100.030 260.400,99.640 260.603,99.484 261.200 C 99.331 261.785,98.938 262.000,98.025 262.000 C 97.283 262.000,96.681 262.244,96.545 262.600 C 96.418 262.930,96.008 263.200,95.633 263.200 C 95.258 263.200,94.564 263.560,94.092 264.000 C 93.620 264.440,92.866 264.800,92.417 264.800 C 91.867 264.800,91.600 265.061,91.600 265.600 C 91.600 266.252,91.333 266.400,90.163 266.400 C 89.062 266.400,88.676 266.587,88.516 267.200 C 88.357 267.806,87.970 268.000,86.916 268.000 C 85.862 268.000,85.475 268.194,85.316 268.800 C 85.160 269.397,84.770 269.600,83.780 269.600 C 82.805 269.600,82.387 269.812,82.200 270.400 C 82.060 270.840,81.613 271.200,81.206 271.200 C 80.039 271.200,79.200 271.636,79.200 272.243 C 79.200 272.549,78.840 272.800,78.400 272.800 C 77.867 272.800,77.600 273.067,77.600 273.600 C 77.600 274.252,77.333 274.400,76.163 274.400 C 75.062 274.400,74.676 274.587,74.516 275.200 C 74.401 275.640,74.007 276.000,73.642 276.000 C 73.276 276.000,72.717 276.360,72.400 276.800 C 72.061 277.270,71.365 277.600,70.712 277.600 C 69.867 277.600,69.600 277.792,69.600 278.400 C 69.600 278.861,69.333 279.200,68.971 279.200 C 68.626 279.200,68.073 279.470,67.743 279.800 C 67.413 280.130,66.806 280.400,66.394 280.400 C 65.982 280.400,65.410 280.727,65.123 281.126 C 64.835 281.526,64.285 281.970,63.900 282.114 C 63.515 282.257,63.200 282.651,63.200 282.987 C 63.200 283.333,62.852 283.600,62.400 283.600 C 61.960 283.600,61.240 283.960,60.800 284.400 C 60.360 284.840,59.730 285.200,59.400 285.200 C 59.067 285.200,58.800 285.556,58.800 286.000 C 58.800 286.533,58.533 286.800,58.000 286.800 C 57.467 286.800,57.200 287.067,57.200 287.600 C 57.200 288.133,56.933 288.400,56.400 288.400 C 55.867 288.400,55.600 288.667,55.600 289.200 C 55.600 289.733,55.333 290.000,54.800 290.000 C 54.360 290.000,53.640 290.360,53.200 290.800 C 52.760 291.240,52.113 291.600,51.763 291.600 C 51.412 291.600,51.031 291.960,50.916 292.400 C 50.801 292.840,50.470 293.200,50.180 293.200 C 49.891 293.200,49.540 293.560,49.400 294.000 C 49.260 294.440,48.955 294.800,48.720 294.800 C 48.166 294.800,44.800 298.166,44.800 298.720 C 44.800 298.955,44.440 299.260,44.000 299.400 C 43.560 299.540,43.200 299.905,43.200 300.213 C 43.200 300.520,42.840 300.965,42.400 301.200 C 41.960 301.435,41.600 301.980,41.600 302.411 C 41.600 302.841,41.240 303.418,40.800 303.693 C 40.360 303.968,40.000 304.509,40.000 304.896 C 40.000 305.333,39.697 305.600,39.200 305.600 C 38.667 305.600,38.400 305.867,38.400 306.400 C 38.400 306.840,38.149 307.200,37.843 307.200 C 37.198 307.200,36.800 308.052,36.800 309.433 C 36.800 310.133,36.579 310.400,36.000 310.400 C 35.436 310.400,35.200 310.667,35.200 311.304 C 35.200 311.801,34.840 312.432,34.400 312.707 C 33.960 312.982,33.600 313.582,33.600 314.040 C 33.600 314.499,33.240 315.331,32.800 315.891 C 32.360 316.450,32.000 317.505,32.000 318.234 C 32.000 319.081,31.747 319.701,31.300 319.951 C 30.710 320.281,30.581 321.054,30.478 324.871 C 30.401 327.730,30.143 329.865,29.778 330.660 C 28.969 332.424,28.960 341.303,29.767 342.110 C 30.184 342.527,30.369 344.077,30.467 347.967 C 30.581 352.504,30.700 353.313,31.300 353.649 C 31.761 353.906,32.000 354.523,32.000 355.457 C 32.000 356.538,32.190 356.925,32.800 357.084 C 33.401 357.241,33.600 357.630,33.600 358.647 C 33.600 359.733,33.758 360.000,34.400 360.000 C 34.979 360.000,35.200 360.267,35.200 360.967 C 35.200 362.348,35.598 363.200,36.243 363.200 C 36.549 363.200,36.800 363.560,36.800 364.000 C 36.800 364.533,37.067 364.800,37.600 364.800 C 38.133 364.800,38.400 365.067,38.400 365.600 C 38.400 366.133,38.667 366.400,39.200 366.400 C 39.733 366.400,40.000 366.667,40.000 367.200 C 40.000 367.733,40.267 368.000,40.800 368.000 C 41.333 368.000,41.600 368.267,41.600 368.800 C 41.600 369.317,41.867 369.600,42.353 369.600 C 42.770 369.600,43.200 369.957,43.316 370.400 C 43.431 370.840,43.812 371.200,44.163 371.200 C 44.513 371.200,44.800 371.462,44.800 371.782 C 44.800 372.127,45.354 372.468,46.163 372.619 C 47.032 372.782,47.599 373.152,47.726 373.638 C 47.842 374.081,48.275 374.400,48.763 374.400 C 49.240 374.400,49.600 374.658,49.600 375.000 C 49.600 375.419,50.022 375.600,51.000 375.600 C 52.133 375.600,52.400 375.752,52.400 376.400 C 52.400 377.067,52.667 377.200,54.000 377.200 C 55.333 377.200,55.600 377.333,55.600 378.000 C 55.600 378.667,55.867 378.800,57.200 378.800 C 58.533 378.800,58.800 378.933,58.800 379.600 C 58.800 380.267,59.067 380.400,60.400 380.400 C 61.733 380.400,62.000 380.533,62.000 381.200 C 62.000 381.867,62.267 382.000,63.600 382.000 C 64.701 382.000,65.200 382.174,65.200 382.557 C 65.200 383.272,66.077 383.600,67.986 383.600 C 69.170 383.600,69.553 383.777,69.716 384.400 C 69.893 385.077,70.262 385.200,72.116 385.200 C 73.970 385.200,74.339 385.323,74.516 386.000 C 74.694 386.680,75.062 386.800,76.963 386.800 C 78.601 386.800,79.200 386.948,79.200 387.353 C 79.200 388.057,80.439 388.388,83.100 388.395 C 84.626 388.399,85.200 388.552,85.200 388.957 C 85.200 389.744,86.104 390.000,88.889 390.000 C 90.735 390.000,91.434 390.167,91.823 390.700 C 92.230 391.257,93.078 391.429,95.968 391.540 C 98.748 391.647,99.600 391.811,99.600 392.240 C 99.600 392.684,100.452 392.800,103.704 392.800 C 107.374 392.800,107.860 392.884,108.307 393.600 C 108.766 394.335,109.240 394.400,114.157 394.400 C 119.170 394.400,119.520 394.450,119.716 395.200 C 119.914 395.958,120.262 396.000,126.301 396.000 C 132.168 396.000,132.734 396.064,133.400 396.800 C 134.089 397.562,134.632 397.600,144.766 397.600 C 154.974 397.600,155.428 397.633,155.907 398.400 C 156.402 399.192,156.840 399.200,200.603 399.200 C 244.267 399.200,244.810 399.190,245.600 398.400 C 246.359 397.641,246.933 397.600,256.797 397.600 C 266.760 397.600,267.214 397.567,267.693 396.800 C 268.160 396.052,268.626 396.000,274.869 396.000 C 281.195 396.000,281.559 395.958,281.800 395.200 C 282.037 394.454,282.405 394.400,287.264 394.400 C 292.138 394.400,292.488 394.348,292.684 393.600 C 292.875 392.869,293.230 392.800,296.804 392.800 C 299.911 392.800,300.762 392.677,300.945 392.200 C 301.125 391.731,301.927 391.600,304.625 391.600 C 307.679 391.600,308.098 391.513,308.274 390.840 C 308.446 390.182,308.934 390.060,311.869 389.940 C 314.532 389.830,315.375 389.649,315.776 389.100 C 316.149 388.591,316.848 388.400,318.341 388.400 C 319.960 388.400,320.499 388.231,320.893 387.600 C 321.291 386.963,321.826 386.800,323.520 386.800 C 324.820 386.800,325.552 386.646,325.403 386.405 C 325.263 386.178,325.423 386.111,325.776 386.246 C 326.140 386.386,326.494 386.219,326.639 385.842 C 326.814 385.388,327.399 385.200,328.643 385.200 C 330.133 385.200,330.400 385.079,330.400 384.400 C 330.400 383.695,330.667 383.600,332.637 383.600 C 334.538 383.600,334.906 383.480,335.084 382.800 C 335.246 382.180,335.630 382.000,336.785 382.000 C 337.768 382.000,338.523 381.727,339.000 381.200 C 339.398 380.760,340.118 380.400,340.600 380.400 C 341.082 380.400,341.802 380.040,342.200 379.600 C 342.598 379.160,343.348 378.800,343.866 378.800 C 344.384 378.800,345.116 378.440,345.493 378.000 C 345.870 377.560,346.498 377.200,346.889 377.200 C 347.333 377.200,347.600 376.900,347.600 376.400 C 347.600 375.755,347.867 375.600,348.980 375.600 C 349.739 375.600,350.504 375.361,350.680 375.070 C 350.856 374.778,351.315 374.424,351.700 374.282 C 352.085 374.141,352.400 373.749,352.400 373.413 C 352.400 373.001,352.787 372.800,353.577 372.800 C 354.256 372.800,354.976 372.493,355.277 372.074 C 355.565 371.674,356.115 371.230,356.500 371.086 C 356.885 370.943,357.200 370.549,357.200 370.213 C 357.200 369.876,357.470 369.600,357.800 369.600 C 358.133 369.600,358.400 369.244,358.400 368.800 C 358.400 368.267,358.667 368.000,359.200 368.000 C 359.733 368.000,360.000 367.733,360.000 367.200 C 360.000 366.667,360.267 366.400,360.800 366.400 C 361.333 366.400,361.600 366.133,361.600 365.600 C 361.600 365.067,361.867 364.800,362.400 364.800 C 362.917 364.800,363.200 364.533,363.200 364.047 C 363.200 363.630,363.557 363.200,364.000 363.084 C 364.613 362.924,364.800 362.538,364.800 361.437 C 364.800 360.267,364.948 360.000,365.600 360.000 C 366.242 360.000,366.400 359.733,366.400 358.647 C 366.400 357.630,366.599 357.241,367.200 357.084 C 367.799 356.927,368.000 356.538,368.000 355.534 C 368.000 354.626,368.258 354.031,368.800 353.693 C 369.535 353.234,369.600 352.760,369.600 347.839 C 369.600 343.338,369.700 342.447,370.230 342.244 C 371.057 341.927,370.933 330.376,370.100 330.099 C 369.737 329.979,369.600 328.625,369.600 325.170 C 369.600 320.840,369.527 320.361,368.800 319.907 C 368.236 319.555,368.000 318.974,368.000 317.936 C 368.000 316.075,367.667 315.200,366.957 315.200 C 366.584 315.200,366.400 314.725,366.400 313.763 C 366.400 312.662,366.213 312.276,365.600 312.116 C 365.157 312.000,364.800 311.570,364.800 311.153 C 364.800 310.739,364.440 310.040,364.000 309.600 C 363.560 309.160,363.200 308.440,363.200 308.000 C 363.200 307.467,362.933 307.200,362.400 307.200 C 361.867 307.200,361.600 306.933,361.600 306.400 C 361.600 305.960,361.240 305.240,360.800 304.800 C 360.360 304.360,360.000 303.713,360.000 303.363 C 360.000 303.012,359.640 302.631,359.200 302.516 C 358.757 302.400,358.400 301.970,358.400 301.553 C 358.400 301.139,358.130 300.800,357.800 300.800 C 357.470 300.800,357.200 300.513,357.200 300.163 C 357.200 299.812,356.840 299.431,356.400 299.316 C 355.960 299.201,355.600 298.841,355.600 298.516 C 355.600 298.191,355.240 297.831,354.800 297.716 C 354.360 297.601,354.000 297.241,354.000 296.916 C 354.000 296.591,353.640 296.231,353.200 296.116 C 352.760 296.001,352.400 295.658,352.400 295.353 C 352.400 295.049,352.040 294.800,351.600 294.800 C 351.067 294.800,350.800 294.533,350.800 294.000 C 350.800 293.467,350.533 293.200,350.000 293.200 C 349.467 293.200,349.200 292.933,349.200 292.400 C 349.200 291.867,348.933 291.600,348.400 291.600 C 347.867 291.600,347.600 291.333,347.600 290.800 C 347.600 290.283,347.333 290.000,346.847 290.000 C 346.430 290.000,346.000 289.643,345.884 289.200 C 345.769 288.760,345.388 288.400,345.037 288.400 C 344.687 288.400,344.040 288.040,343.600 287.600 C 343.160 287.160,342.530 286.800,342.200 286.800 C 341.870 286.800,341.600 286.513,341.600 286.163 C 341.600 285.812,341.246 285.433,340.813 285.319 C 340.381 285.206,339.918 284.773,339.786 284.357 C 339.654 283.941,339.288 283.600,338.973 283.600 C 338.658 283.600,338.040 283.240,337.600 282.800 C 337.160 282.360,336.440 282.000,336.000 282.000 C 335.548 282.000,335.200 281.733,335.200 281.387 C 335.200 281.051,334.885 280.659,334.500 280.518 C 334.115 280.376,333.656 280.022,333.480 279.730 C 333.304 279.439,332.539 279.200,331.780 279.200 C 330.667 279.200,330.400 279.045,330.400 278.400 C 330.400 277.867,330.133 277.600,329.600 277.600 C 329.067 277.600,328.800 277.333,328.800 276.800 C 328.800 276.133,328.533 276.000,327.200 276.000 C 325.867 276.000,325.600 275.867,325.600 275.200 C 325.600 274.614,325.333 274.400,324.603 274.400 C 324.040 274.400,323.390 274.052,323.107 273.600 C 322.832 273.160,322.274 272.800,321.866 272.800 C 321.459 272.800,321.031 272.440,320.916 272.000 C 320.761 271.406,320.370 271.200,319.400 271.200 C 318.430 271.200,318.039 270.994,317.884 270.400 C 317.724 269.787,317.338 269.600,316.237 269.600 C 315.067 269.600,314.800 269.452,314.800 268.800 C 314.800 268.133,314.533 268.000,313.200 268.000 C 311.867 268.000,311.600 267.867,311.600 267.200 C 311.600 266.533,311.333 266.400,310.000 266.400 C 308.667 266.400,308.400 266.267,308.400 265.600 C 308.400 265.135,308.133 264.800,307.763 264.800 C 307.413 264.800,306.669 264.440,306.109 264.000 C 305.550 263.560,304.776 263.200,304.389 263.200 C 304.002 263.200,303.582 262.930,303.455 262.600 C 303.322 262.251,302.723 262.000,302.027 262.000 C 301.238 262.000,300.682 261.727,300.400 261.200 C 300.060 260.565,299.562 260.400,297.986 260.400 C 296.267 260.400,296.000 260.293,296.000 259.600 C 296.000 258.933,295.733 258.800,294.400 258.800 C 293.067 258.800,292.800 258.667,292.800 258.000 C 292.800 257.355,292.533 257.200,291.427 257.200 C 290.405 257.200,289.989 256.995,289.800 256.400 C 289.616 255.820,289.195 255.600,288.269 255.600 C 287.426 255.600,286.823 255.329,286.493 254.800 C 286.129 254.218,285.560 254.000,284.400 254.000 C 283.240 254.000,282.671 253.782,282.307 253.200 C 281.956 252.638,281.374 252.400,280.350 252.400 C 279.230 252.400,278.845 252.215,278.684 251.600 C 278.510 250.935,278.138 250.800,276.484 250.800 C 274.830 250.800,274.458 250.665,274.284 250.000 C 274.118 249.364,273.738 249.200,272.437 249.200 C 271.310 249.200,270.800 249.028,270.800 248.647 C 270.800 248.016,269.600 247.613,267.700 247.605 C 266.858 247.602,266.400 247.404,266.400 247.043 C 266.400 246.274,265.503 246.000,262.985 246.000 C 259.707 246.000,258.800 247.088,258.800 251.018 C 258.800 253.733,258.728 254.000,258.000 254.000 C 257.268 254.000,257.200 254.267,257.200 257.153 C 257.200 259.970,257.115 260.329,256.400 260.516 C 255.690 260.702,255.600 261.062,255.600 263.716 C 255.600 266.370,255.510 266.730,254.800 266.916 C 254.096 267.100,254.000 267.462,254.000 269.916 C 254.000 272.370,253.904 272.732,253.200 272.916 C 252.489 273.102,252.400 273.462,252.400 276.163 C 252.400 278.933,252.330 279.200,251.600 279.200 C 250.884 279.200,250.800 279.467,250.800 281.738 C 250.800 283.768,250.640 284.421,250.000 285.000 C 249.404 285.540,249.200 286.232,249.200 287.718 C 249.200 289.122,249.002 289.857,248.529 290.202 C 248.070 290.538,247.803 291.468,247.680 293.158 C 247.544 295.044,247.325 295.719,246.751 296.026 C 246.157 296.344,246.000 296.885,246.000 298.614 C 246.000 300.290,245.860 300.800,245.400 300.800 C 244.935 300.800,244.800 301.328,244.800 303.153 C 244.800 305.170,244.686 305.537,244.000 305.716 C 243.325 305.892,243.200 306.262,243.200 308.074 C 243.200 309.727,243.016 310.380,242.400 310.907 C 241.768 311.448,241.600 312.087,241.600 313.949 C 241.600 315.970,241.486 316.337,240.800 316.516 C 240.120 316.694,240.000 317.062,240.000 318.963 C 240.000 320.933,239.905 321.200,239.200 321.200 C 238.512 321.200,238.400 321.467,238.400 323.112 C 238.400 324.565,238.208 325.162,237.600 325.600 C 237.080 325.975,236.800 326.635,236.800 327.488 C 236.800 328.267,236.475 329.125,236.000 329.600 C 235.475 330.125,235.200 330.933,235.200 331.953 C 235.200 333.170,235.027 333.552,234.400 333.716 C 233.723 333.893,233.600 334.262,233.600 336.116 C 233.600 337.970,233.477 338.339,232.800 338.516 C 232.208 338.671,232.000 339.062,232.000 340.018 C 232.000 340.743,231.718 341.518,231.359 341.780 C 231.000 342.043,230.626 343.073,230.507 344.124 C 230.370 345.343,230.104 346.000,229.748 346.000 C 229.378 346.000,229.200 346.505,229.200 347.553 C 229.200 348.770,229.027 349.152,228.400 349.316 C 227.791 349.475,227.600 349.862,227.600 350.936 C 227.600 351.981,227.399 352.410,226.823 352.593 C 226.283 352.764,225.999 353.290,225.890 354.320 C 225.805 355.134,225.704 354.424,225.667 352.743 C 225.617 350.439,225.452 349.629,225.000 349.455 C 224.592 349.299,224.400 348.660,224.400 347.463 C 224.400 344.904,223.980 343.200,223.350 343.200 C 222.982 343.200,222.798 342.703,222.795 341.700 C 222.787 339.611,222.405 338.400,221.753 338.400 C 221.366 338.400,221.200 337.871,221.200 336.633 C 221.200 334.486,220.896 333.600,220.157 333.600 C 219.748 333.600,219.600 333.014,219.600 331.400 C 219.600 329.467,219.503 329.200,218.800 329.200 C 218.095 329.200,218.000 328.933,218.000 326.963 C 218.000 325.062,217.880 324.694,217.200 324.516 C 216.577 324.353,216.400 323.970,216.400 322.786 C 216.400 320.877,216.072 320.000,215.357 320.000 C 214.972 320.000,214.800 319.496,214.800 318.363 C 214.800 317.062,214.636 316.682,214.000 316.516 C 213.335 316.342,213.200 315.970,213.200 314.316 C 213.200 312.662,213.065 312.290,212.400 312.116 C 211.773 311.952,211.600 311.570,211.600 310.353 C 211.600 309.067,211.463 308.800,210.800 308.800 C 210.108 308.800,210.000 308.533,210.000 306.823 C 210.000 305.337,209.812 304.714,209.243 304.315 C 208.756 303.974,208.452 303.219,208.388 302.193 C 208.219 299.495,208.319 299.200,209.400 299.200 C 209.950 299.200,210.760 298.840,211.200 298.400 C 211.640 297.960,212.270 297.600,212.600 297.600 C 212.933 297.600,213.200 297.244,213.200 296.800 C 213.200 296.155,213.467 296.000,214.573 296.000 C 215.595 296.000,216.011 295.795,216.200 295.200 C 216.340 294.760,216.729 294.400,217.064 294.400 C 217.400 294.400,217.769 294.040,217.884 293.600 C 217.999 293.160,218.359 292.800,218.684 292.800 C 219.009 292.800,219.369 292.440,219.484 292.000 C 219.599 291.560,219.928 291.200,220.215 291.200 C 220.502 291.200,220.865 290.615,221.022 289.900 C 221.179 289.185,221.643 288.365,222.054 288.077 C 222.611 287.687,222.800 287.054,222.800 285.577 C 222.800 284.154,222.956 283.600,223.357 283.600 C 224.111 283.600,224.400 282.709,224.400 280.386 C 224.400 278.424,223.758 276.400,223.136 276.400 C 222.951 276.400,222.800 275.875,222.800 275.233 C 222.800 273.693,222.433 272.800,221.802 272.800 C 221.520 272.800,221.171 272.170,221.026 271.400 C 220.869 270.562,220.530 270.000,220.182 270.000 C 219.862 270.000,219.600 269.784,219.600 269.520 C 219.600 268.714,215.529 265.166,214.329 264.926 C 213.708 264.802,213.200 264.447,213.200 264.137 C 213.200 263.828,212.885 263.459,212.500 263.318 C 212.115 263.176,211.656 262.822,211.480 262.530 C 211.304 262.239,210.539 262.000,209.780 262.000 C 208.667 262.000,208.400 261.845,208.400 261.200 C 208.400 260.533,208.133 260.400,206.800 260.400 C 205.467 260.400,205.200 260.267,205.200 259.600 C 205.200 258.841,204.933 258.800,200.000 258.800 C 195.067 258.800,194.800 258.841,194.800 259.600 C 194.800 260.293,194.533 260.400,192.803 260.400 C 191.240 260.400,190.698 260.574,190.307 261.200 C 190.001 261.690,189.374 262.000,188.691 262.000 C 188.077 262.000,187.478 262.254,187.359 262.564 C 187.239 262.874,186.705 263.237,186.171 263.372 C 185.637 263.506,185.200 263.882,185.200 264.208 C 185.200 264.533,184.913 264.800,184.563 264.800 C 184.212 264.800,183.831 265.160,183.716 265.600 C 183.601 266.040,183.241 266.400,182.916 266.400 C 182.591 266.400,182.231 266.760,182.116 267.200 C 182.001 267.640,181.641 268.000,181.316 268.000 C 180.991 268.000,180.631 268.360,180.516 268.800 C 180.401 269.240,180.058 269.600,179.753 269.600 C 179.449 269.600,179.200 269.948,179.200 270.373 C 179.200 270.798,178.840 271.260,178.400 271.400 C 177.729 271.613,177.600 272.005,177.600 273.827 C 177.600 275.733,177.502 276.000,176.800 276.000 C 176.058 276.000,176.000 276.267,176.000 279.704 C 176.000 282.974,176.094 283.466,176.800 283.907 C 177.411 284.289,177.600 284.840,177.600 286.241 C 177.600 287.738,177.747 288.113,178.400 288.284 C 178.964 288.432,179.200 288.830,179.200 289.633 C 179.200 290.362,179.487 290.926,180.000 291.200 C 180.440 291.435,180.800 291.892,180.800 292.214 C 180.800 292.536,181.160 292.800,181.600 292.800 C 182.052 292.800,182.400 293.067,182.400 293.413 C 182.400 293.749,182.701 294.141,183.069 294.282 C 183.438 294.423,184.068 294.868,184.469 295.269 C 184.871 295.671,185.560 296.000,186.000 296.000 C 186.533 296.000,186.800 296.267,186.800 296.800 C 186.800 297.422,187.067 297.600,187.997 297.600 C 188.760 297.600,189.374 297.890,189.693 298.400 C 189.968 298.840,190.509 299.200,190.896 299.200 C 191.650 299.200,191.767 299.687,191.616 302.200 C 191.558 303.153,191.212 304.089,190.760 304.516 C 190.234 305.011,190.000 305.781,190.000 307.016 C 190.000 308.533,189.880 308.800,189.200 308.800 C 188.537 308.800,188.400 309.067,188.400 310.353 C 188.400 311.570,188.227 311.952,187.600 312.116 C 186.935 312.290,186.800 312.662,186.800 314.316 C 186.800 315.970,186.665 316.342,186.000 316.516 C 185.364 316.682,185.200 317.062,185.200 318.363 C 185.200 319.490,185.028 320.000,184.647 320.000 C 184.016 320.000,183.613 321.200,183.605 323.100 C 183.602 323.938,183.403 324.400,183.047 324.400 C 182.400 324.400,182.013 325.609,182.005 327.653 C 182.001 328.768,181.813 329.155,181.200 329.316 C 180.532 329.491,180.400 329.862,180.400 331.563 C 180.400 333.107,180.255 333.600,179.800 333.600 C 179.333 333.600,179.200 334.133,179.200 336.000 C 179.200 338.133,179.111 338.400,178.400 338.400 C 177.691 338.400,177.600 338.667,177.600 340.753 C 177.600 342.770,177.486 343.137,176.800 343.316 C 176.096 343.500,176.000 343.862,176.000 346.336 C 176.000 348.795,175.900 349.178,175.200 349.400 C 174.529 349.613,174.395 350.021,174.368 351.927 C 174.351 353.177,174.235 353.930,174.110 353.600 C 173.985 353.270,173.639 352.856,173.341 352.680 C 173.044 352.504,172.800 351.831,172.800 351.184 C 172.800 350.440,172.505 349.823,172.000 349.507 C 171.458 349.169,171.200 348.574,171.200 347.666 C 171.200 346.662,170.999 346.273,170.400 346.116 C 169.777 345.953,169.600 345.570,169.600 344.386 C 169.600 342.477,169.272 341.600,168.557 341.600 C 168.174 341.600,168.000 341.101,168.000 340.000 C 168.000 338.667,167.867 338.400,167.200 338.400 C 166.495 338.400,166.400 338.133,166.400 336.163 C 166.400 334.262,166.280 333.894,165.600 333.716 C 164.980 333.554,164.800 333.170,164.800 332.015 C 164.800 331.032,164.527 330.277,164.000 329.800 C 163.464 329.315,163.200 328.568,163.200 327.538 C 163.200 326.267,163.061 326.000,162.400 326.000 C 161.689 326.000,161.600 325.733,161.600 323.600 C 161.600 321.467,161.511 321.200,160.800 321.200 C 160.095 321.200,160.000 320.933,160.000 318.963 C 160.000 317.062,159.880 316.694,159.200 316.516 C 158.528 316.340,158.400 315.970,158.400 314.202 C 158.400 312.900,158.189 311.923,157.847 311.639 C 157.533 311.378,157.219 310.133,157.119 308.746 C 156.993 307.014,156.749 306.203,156.271 305.936 C 155.800 305.672,155.600 305.031,155.600 303.780 C 155.600 302.533,155.360 301.760,154.800 301.200 C 154.209 300.609,154.000 299.867,154.000 298.363 C 154.000 296.662,153.868 296.291,153.200 296.116 C 152.525 295.939,152.400 295.570,152.400 293.753 C 152.400 292.133,152.202 291.402,151.600 290.800 C 150.991 290.191,150.800 289.467,150.800 287.763 C 150.800 285.862,150.680 285.494,150.000 285.316 C 149.291 285.131,149.200 284.770,149.200 282.153 C 149.200 279.467,149.128 279.200,148.400 279.200 C 147.676 279.200,147.600 278.933,147.600 276.403 C 147.600 274.040,147.476 273.529,146.800 273.107 C 146.157 272.706,146.000 272.174,146.000 270.400 C 146.000 268.626,145.843 268.094,145.200 267.693 C 144.516 267.266,144.400 266.760,144.400 264.200 C 144.400 261.640,144.284 261.134,143.600 260.707 C 142.921 260.283,142.800 259.774,142.800 257.347 C 142.800 255.172,142.656 254.430,142.200 254.255 C 141.751 254.083,141.600 253.365,141.600 251.409 C 141.600 249.287,141.449 248.663,140.800 248.107 C 140.302 247.681,140.000 246.927,140.000 246.111 L 140.000 244.800 137.787 244.800 C 136.190 244.800,135.511 244.967,135.345 245.400 " stroke="none" fill="#6c6c6c" fill-rule="evenodd"></path><path id="path1" d="" stroke="none" fill="#706c6c" fill-rule="evenodd"></path><path id="path2" d="" stroke="none" fill="#706c6c" fill-rule="evenodd"></path><path id="path3" d="" stroke="none" fill="#706c6c" fill-rule="evenodd"></path><path id="path4" d="" stroke="none" fill="#706c6c" fill-rule="evenodd"></path></g></svg>